<?xml version="1.0" standalone="no"?>
<!DOCTYPE svg PUBLIC "-//W3C//DTD SVG 20010904//EN"
 "http://www.w3.org/TR/2001/REC-SVG-20010904/DTD/svg10.dtd">
<svg version="1.0" xmlns="http://www.w3.org/2000/svg"
 width="79.000000pt" height="78.000000pt" viewBox="0 0 79.000000 78.000000"
 preserveAspectRatio="xMidYMid meet">

<g transform="translate(0.000000,78.000000) scale(0.100000,-0.100000)"
fill="#000000" stroke="none">
<path d="M650 480 c0 -5 5 -10 10 -10 6 0 10 5 10 10 0 6 -4 10 -10 10 -5 0
-10 -4 -10 -10z"/>
<path d="M160 417 c0 -16 76 -60 93 -54 6 3 -7 13 -31 23 -27 11 -41 22 -38
31 3 7 -1 13 -9 13 -8 0 -15 -6 -15 -13z"/>
<path d="M556 404 c-19 -11 -25 -19 -18 -26 11 -11 62 17 62 33 0 12 -10 11
-44 -7z"/>
<path d="M640 401 c0 -6 5 -13 10 -16 6 -3 10 1 10 9 0 9 -4 16 -10 16 -5 0
-10 -4 -10 -9z"/>
<path d="M298 384 c-37 -19 -62 -83 -55 -141 4 -37 12 -54 37 -76 l32 -29 21
20 c19 20 19 22 4 46 -25 37 -21 45 6 10 18 -24 31 -30 69 -32 45 -3 49 -1 68
30 11 18 20 29 20 25 0 -5 -8 -22 -17 -38 -16 -26 -16 -31 -2 -44 20 -20 39
-12 67 28 43 64 23 170 -37 201 -26 14 -33 14 -70 -1 -37 -14 -45 -15 -79 -1
-33 13 -43 13 -64 2z"/>
<path d="M617 344 c-26 -8 -45 -19 -42 -24 8 -12 35 -13 35 -1 0 5 6 8 13 8
24 -2 87 15 87 24 0 13 -37 10 -93 -7z"/>
<path d="M110 332 c0 -5 27 -14 60 -19 60 -10 87 0 30 11 -16 3 -43 9 -60 12
-16 3 -30 1 -30 -4z"/>
<path d="M593 258 c3 -10 2 -18 -3 -18 -6 0 -10 -4 -10 -9 0 -5 9 -7 20 -4 24
6 25 16 3 34 -15 12 -16 12 -10 -3z"/>
<path d="M183 253 c-23 -9 -14 -25 10 -18 31 10 45 25 22 24 -11 0 -26 -3 -32
-6z"/>
<path d="M648 253 c-10 -2 -18 -9 -18 -13 0 -12 60 -43 67 -36 3 3 -7 11 -22
18 l-27 12 33 12 c30 11 31 12 9 12 -14 0 -33 -2 -42 -5z"/>
<path d="M95 220 c-3 -5 3 -10 14 -10 12 0 21 5 21 10 0 6 -6 10 -14 10 -8 0
-18 -4 -21 -10z"/>
<path d="M230 182 c-29 -9 -60 -46 -60 -71 1 -59 40 -75 150 -59 l80 12 0 31
c0 25 -6 33 -30 42 -17 7 -32 7 -36 2 -10 -17 -36 -9 -62 19 -15 16 -34 27
-42 24z"/>
<path d="M529 147 c-20 -24 -30 -29 -40 -21 -8 6 -24 8 -37 5 -23 -6 -23 -6 7
-29 17 -12 31 -31 31 -42 0 -16 7 -20 34 -20 40 0 87 16 98 33 16 26 8 66 -18
86 -35 27 -44 26 -75 -12z"/>
</g>
</svg>
